<svg xmlns="http://www.w3.org/2000/svg" version="1.1" xmlns:xlink="http://www.w3.org/1999/xlink" xmlns:svgjs="http://svgjs.dev/svgjs" viewBox="0 0 800 800" opacity="1"><g fill="none" stroke-width="2.25" stroke="hsl(32, 100%, 51%)" stroke-linecap="round"><path d="M710.29 437.32C691.7 460.62 685.74 481.9 692.55 500.91 720.33 527.76 745.49 566.62 721.67 578.5 693.5 585.99 660.07 592.05 625.87 597.84 593.52 606.75 564.98 617.75 540.67 631.97 520.75 651.25 503.53 674.05 487.38 699.26 473.23 726.02 457.93 750.81 440.46 770.28 423.35 783.51 403.27 786.88 379.97 779.28 356.67 764.3 331.25 742.72 304.43 718.4 277.95 696.02 250.87 676.6 224.64 661.71 169.52 650.62 155.14 643.47 161.95 629.57 157.57 616.92 144.55 600.52 121.9 581.31 91.05 560.89 58.28 538.69 31.27 515.63 15.46 492.26 16.7 468.65 35.29 445.35 62.86 422.05 92.09 400.16 114.47 379.6 123.58 358.71 120.77 338.52 109.97 318.57 93.94 297.41 81.79 275.44 78.04 252.18 82.63 226.93 98.26 199.95 122.42 171.67 152.18 142.6 185.11 114.01 218.17 87.92 250.6 65.23 280.74 48.51 308.28 39.75 334.02 37.56 358.11 43.72 381.31 57.11 403.87 72.43 426.68 89.3 449.98 104.28 473.28 111.87 495.97 113.23 517.34 108.99 567.61 80.49 598.69 90.6 599.72 120.53 606.1 145.29 618.09 172.68 637.76 201.1 665.77 230.01 698.82 258.62 731.92 286.25 759.8 313.47 775.87 339.71 775.76 364.86 762.38 389.8 737.87 414.01 710.3 437.31Q710.29 437.32 710.29 437.32" opacity="0.28"></path><path d="M696.79 428.11C678.68 450.48 672.03 470.59 677.21 488.27 702.57 513.26 732.24 549.44 714.88 561.27 691.03 569.31 660.75 576.49 628.12 583.92 595.61 594.53 565.51 607.35 538.84 623.2 515.73 643.47 495.5 666.66 476.96 691.51 460.48 717.22 443.73 740.55 425.69 758.51 408.12 770.5 388.3 773.24 365.93 765.78 343.56 751.51 319.7 730.96 295.09 707.59 270.94 685.64 247 666.03 224.73 650.31 181.96 634.86 175.11 626.72 177.54 615.37 169.64 605.03 153.54 591.09 129.13 574.25 98.35 556.34 67.12 536.38 42.38 515.17 28.56 493.66 30.68 471.47 48.79 449.1 75.19 426.74 103.53 405.24 126.13 384.57 136.88 363.6 136.58 342.87 128.17 322.01 113.61 300.09 101.08 277.19 95.04 253.06 95.63 227.4 106.36 200.37 125.65 172.61 150.94 144.74 180.63 117.96 211.77 94.18 243.51 74.03 273.97 59.83 302.31 53.23 329.47 52.55 354.82 59.44 378.72 72.75 402.1 87.49 424.93 103.51 447.3 117.78 469.67 125.23 490.52 127.03 509.32 123.68 551.72 96.73 578.63 100.15 583.86 125.7 593.89 147.6 609.68 172.52 632.37 198.96 661.7 226.28 694.29 253.75 725.25 280.57 750.06 307.23 763.09 333.03 760.97 357.67 747.01 382.17 723.21 405.74 696.8 428.1Q696.79 428.11 696.79 428.11" opacity="0.08"></path><path d="M683.29 417.22C665.69 438.66 658.42 457.72 662.06 474.32 684.86 497.84 717.76 532.49 706.44 544.86 687.12 553.72 660.59 562.22 630.42 571.35 598.92 583.6 568.38 598.07 540.3 615.27 514.79 636.26 492.01 659.55 471.25 683.83 452.4 708.36 434.02 730.18 415.2 746.64 396.9 757.43 377.17 759.58 355.73 752.28 334.3 738.72 312.17 719.2 290.05 696.8 268.44 675.39 247.83 655.73 229.53 639.35 197.45 619.63 193.94 609.22 191.5 599.74 180.26 591.27 161.51 579.44 135.87 564.73 105.58 549.12 76.11 531.27 53.68 511.84 41.77 492.13 44.69 471.35 62.29 449.92 87.53 428.48 114.93 407.4 137.58 386.69 149.79 365.69 151.87 344.55 145.92 323.01 133.19 300.58 120.92 277.11 113.33 252.54 110.65 226.89 116.94 200.29 131.44 173.51 151.92 147.17 177.63 122.47 205.92 101.15 235.8 83.54 265.43 71.77 293.62 67.15 321.25 67.81 347.18 75.27 371.36 88.41 395.18 102.54 417.84 117.71 439.28 131.28 470.31 139.68 519.3 125.26 535.35 111.63 547.14 101.03 560.41 110.91 570.56 132.23 584.16 151.2 603.28 173.47 628.27 197.64 658.18 223 689.67 248.93 718.12 274.54 739.78 300.25 749.91 325.26 745.97 349.15 731.59 372.99 708.54 395.78 683.3 417.21Q683.29 417.22 683.29 417.22" opacity="0.24"></path><path d="M669.79 405.3C648.82 434.87 667.24 482.12 689.56 499.96 702.11 516.26 670.28 544.46 632.1 560.23 602.64 573.99 572.8 589.87 544.35 608.15 517.44 629.55 492.82 652.67 470.3 676.16 449.38 699.4 429.45 719.68 409.85 734.67 390.74 744.31 371.03 745.91 350.53 738.78 330.02 725.91 309.69 707.42 290.14 686.03 271.07 665.24 253.7 645.67 239.09 628.82 215.4 605.04 211.23 591.3 203.71 583.03 189.46 575.98 168.58 565.87 142.24 552.98 112.81 539.39 85.3 523.45 65.17 505.67 55.08 487.66 58.71 468.24 75.79 447.73 99.86 427.23 126.27 406.62 148.84 385.96 162.29 365.07 166.58 343.71 163.11 321.77 152.51 299.14 141.06 275.48 132.66 250.93 127.5 225.74 129.98 200.01 140.01 174.6 155.63 150.12 176.94 127.68 201.67 108.89 228.68 93.78 256.45 84.31 283.54 81.49 310.66 83.32 336.38 91.22 360.33 104.09 384.08 117.57 406.32 131.91 426.82 144.78 456.22 153.19 500.55 141.36 514.75 128.84 526.2 118.01 544.71 122.88 560.04 140.21 576.88 156.27 598.71 175.79 625.21 197.52 654.96 220.61 684.79 244.66 710.43 268.75 728.93 293.13 736.32 317.04 730.78 339.96 716.12 362.89 693.88 384.79 669.8 405.29Q669.79 405.3 669.79 405.3" opacity="0.08"></path><path d="M656.29 393.06C635.65 421.3 649.78 466.75 670.78 484.46 685.4 501.23 664.84 532.57 632.53 550.61 605.98 565.69 577.86 582.7 550.09 601.74 522.86 623.26 497.31 645.95 473.7 668.47 451.26 690.32 430.13 709.04 409.91 722.59 390.12 731.14 370.48 732.23 350.91 725.28 331.33 713.1 312.76 695.63 295.64 675.27 278.95 655.19 264.48 635.85 253 618.69 235.02 591.18 226.65 573.3 214.15 565.63 197.31 559.54 174.85 550.74 148.33 539.33 120.12 527.42 94.72 513.15 76.86 496.87 68.5 480.4 72.77 462.26 89.29 442.69 112.2 423.12 137.57 403.04 159.92 382.6 174.4 361.97 180.71 340.64 179.67 318.63 171.39 296.13 161.25 272.7 152.73 248.62 145.92 224.3 145.33 199.84 151.41 176.16 162.4 153.76 179.17 133.72 199.92 117.48 223.35 104.78 248.39 97.44 273.53 96.25 299.19 99.06 323.93 107.25 347.1 119.78 370.23 132.59 391.77 146.09 411.34 158.28 439.26 166.67 480.55 157.32 494.25 146.03 506.61 135.28 532.02 136.01 552.35 149.67 571.92 162.95 595.71 179.71 622.9 198.89 651.8 219.52 679.49 241.45 702.11 263.75 717.5 286.49 722.33 309.02 715.41 330.78 700.61 352.59 679.22 373.48 656.3 393.05Q656.29 393.06 656.29 393.06" opacity="0.19"></path><path d="M642.79 381.24C622.55 408.19 632.51 452.35 651.82 470.27 667.73 487.77 657.3 522.38 631.14 542.49 608.14 558.63 582.62 576.49 556.48 595.95 530.02 617.32 504.53 639.33 480.61 660.72 457.41 681.1 435.6 698.25 415.09 710.4 394.9 717.91 375.46 718.53 356.82 711.78 338.18 700.28 321.22 683.82 306.26 664.52 291.62 645.21 279.52 626.25 270.42 608.96 255.39 578.1 239.98 555.54 222.84 547.93 203.91 542.38 180.45 534.48 154.26 524.2 127.57 513.62 104.39 500.74 88.77 485.78 82.02 470.68 86.84 453.73 102.79 435.09 124.54 416.45 148.83 397.01 170.82 376.95 186.11 356.77 194.23 335.74 195.53 314.01 189.7 291.99 181.26 269.19 173.24 246.02 165.59 222.94 162.74 200.1 165.55 178.43 172.38 158.26 184.78 140.69 201.41 126.95 220.82 116.55 242.54 111.17 265.08 111.39 288.48 115.01 311.54 123.37 333.42 135.48 355.4 147.59 375.94 160.27 394.58 171.78 421.15 180.11 460.95 173.14 475.28 163.16 489.53 152.78 522.6 150.24 547.38 160.65 569.01 171.31 593.95 185.4 621.02 202.02 648.45 220.11 673.6 239.74 693.09 260.07 705.46 280.94 707.95 301.88 699.86 322.29 685.06 342.81 664.56 362.59 642.8 381.23Q642.79 381.24 642.79 381.24" opacity="0.50"></path><path d="M629.29 370.54C609.5 396.24 615.49 439.49 632.82 457.86 655.45 483.36 653.74 508.16 627.48 535.82 586.12 571.47 536.7 612.39 489.87 652.86 466.75 671.71 444.91 687.3 424.53 698.1 404.35 704.62 385.32 704.82 367.61 698.28 349.9 687.45 334.35 672 321.14 653.76 308.12 635.3 297.75 616.83 290.19 599.58 275.64 574.23 269.79 557.04 264.73 544.36 244.58 538.16 208.72 527.03 160.14 508.1 124.79 492.62 98.3 451.02 116.29 425.38 136.89 407.67 160.05 388.96 181.57 369.5 197.44 349.95 207.13 329.51 210.61 308.42 198.53 265.97 183.65 221.84 182.14 181.61 192.57 147.88 221.64 127.5 259.48 126.89 280.06 131.16 300.88 139.55 321.05 151.18 341.42 162.58 360.71 174.44 378.42 185.28 403.78 193.52 443.36 188.8 459.17 180.17 482.7 165.66 508.9 162.3 544.89 173.07 592.81 191.82 645.26 222.29 683.3 258.17 692.8 277 693.19 296.19 684.15 315.14 669.47 334.23 649.9 352.82 629.3 370.53Q629.29 370.54 629.29 370.54" opacity="0.66"></path><path d="M615.79 361.6C593.61 395.15 596.16 423.46 613.88 447.58 636.66 474.04 640.03 500.82 621.19 530.52 587.81 566.73 543.94 606.8 500.09 644.85 455.72 677.18 415.6 692.97 382.05 684.78 348.5 661.52 324.69 626.18 310.91 590.55 296.62 564.01 288.13 544.48 277.54 529.56 252.4 521.3 213.45 509.66 166.07 491.57 123.76 473.64 107.61 447.7 129.79 414.15 170.02 380.6 207.47 342.62 224.9 302.41 217.65 262.34 204.71 221.63 200.81 185.91 204.96 156.85 226.33 140.8 257.78 142.73 293.7 153.77 331.15 175.51 364.7 198.78 398.25 206.97 424.74 204.78 446.96 197.04 473.65 183.58 504.64 179.1 544.46 186.86 592.34 201.13 640.86 226.72 672.71 258.4 679.88 292.42 656.03 328.04 615.8 361.59Q615.79 361.6 615.79 361.6" opacity="0.28"></path><path d="M602.29 354.97C580.53 386.66 580.48 414.61 595.11 439.69 617.14 466.98 624.32 495.35 612.11 526.46 586.77 562.61 549.44 601.28 509.77 636.64 468.4 665.86 430.2 679.49 398.52 671.28 366.83 649.58 344.65 616.32 331.11 581.81 315.86 554.54 303.74 533.04 287.55 516.03 258.23 505.53 217.44 492.92 172.18 475.2 134.32 458.11 121.53 433.76 143.29 402.07 181.26 370.39 218.2 334.37 238.34 296.55 235.9 259.35 225.84 222.51 221.02 191.47 220.6 166.95 235.31 154.84 260.66 158.88 290.19 170.16 323.28 190.58 354.96 212.28 386.65 220.49 413.94 219.71 439.32 213.72 468.88 201.58 503.63 196.52 545.58 201.9 591.93 212.32 635.61 233.4 661.27 261.03 664.37 290.86 640.27 323.28 602.3 354.96Q602.29 354.97 602.29 354.97" opacity="0.45"></path><path d="M588.79 351.04C567.55 380.86 565.15 408.45 576.62 434.34 597.12 462.19 606.84 491.65 600.21 523.48 582.47 558.96 552.14 595.74 517.5 628.21 480.38 654.36 444.97 665.96 415.15 657.78 385.33 637.62 363.91 606.49 349.35 573.35 332.3 545.77 316.08 522.75 294.74 503.9 262.28 491.14 220.93 477.28 178.57 459.55 145.24 442.8 135.55 419.69 156.79 389.87 192.47 360.05 228.59 326.33 250.92 291.4 253.1 257.44 246.58 224.76 242.18 198.43 238.97 178.19 248.39 169.58 268.32 175.29 291.79 186.57 320.48 205.61 350.3 225.78 380.13 233.95 408.26 234.44 436.48 230.16 468.23 219.54 505.35 214.39 547.65 218 591.14 225.26 629.3 242.35 648.97 266.18 648.52 291.97 624.48 321.2 588.8 351.03Q588.79 351.04 588.79 351.04" opacity="0.50"></path><path d="M575.29 350.04C554.68 377.99 550.2 405.11 558.52 431.52 576.82 459.57 587.86 489.54 585.61 521.37 574.61 555.61 551.21 590.08 522.02 619.51 490 642.66 458.03 652.36 430.07 644.28 402.11 625.64 380.82 596.67 364.38 565.12 345.12 537.67 324.88 513.59 299.23 493.23 264.84 478.36 224.14 463.11 185.35 445.15 156.53 428.35 149.68 406.24 170.29 378.28 203.67 350.32 238.67 319.16 262.64 287.51 267.81 242.82 262.2 187.78 280.56 191.94 298.72 203 323.29 220.63 351.25 239.28 379.21 247.36 407.91 248.99 438.2 246.34 471.14 237.4 509.07 232.58 550.01 234.99 589.53 239.8 621.77 253.47 635.81 273.87 632.34 295.91 608.68 322.07 575.3 350.03Q575.29 350.04 575.29 350.04" opacity="0.74"></path><path d="M561.79 352.03C541.91 378.13 535.63 404.57 540.9 431.11 556.52 458.93 567.75 488.77 568.61 519.92 563.18 552.39 546.16 584.2 522.39 610.51 495.85 630.76 467.7 638.71 441.6 630.78 415.5 613.62 393.94 586.86 375.26 557.09 353.8 530.16 330.09 505.53 301.32 484.06 266.26 467.35 227.35 450.77 192.61 432.46 168.21 415.4 163.91 394.08 183.79 367.98 214.85 341.89 248.45 313.49 273.51 285.33 283.57 224.42 321.11 227.52 357.69 252.78 383.79 260.71 412.53 263.33 443.82 262.21 476.79 255.03 513.94 250.9 551.97 252.63 599.81 261.12 604.37 314.29 561.8 352.02Q561.79 352.03 561.79 352.03" opacity="0.08"></path><path d="M548.29 356.9C529.25 381.13 521.46 406.65 523.86 432.85 536.44 459.98 546.9 489.06 549.63 518.89 548.38 549.14 536.82 578.02 518.08 601.18 496.9 618.65 472.67 625 448.44 617.28 424.2 601.58 402.27 577.03 381.46 549.21 358.2 523.19 331.95 498.5 301.43 476.38 266.94 458.22 230.79 440.49 200.44 421.87 180.28 404.46 178.25 383.84 197.29 359.61 226.02 335.38 257.96 309.83 283.56 285.24 301.86 234.93 335.65 243.21 368.91 266.28 393.14 274 421.25 277.47 452.29 277.76 484.11 272.37 518.98 269.19 552.9 270.69 592.49 276.99 588.09 322.34 548.3 356.89Q548.29 356.9 548.29 356.9" opacity="0.87"></path><path d="M534.79 364.36C516.68 386.73 507.69 411.04 507.46 436.41 516.86 462.37 525.75 490.09 529.2 518.01 530.7 545.68 523.41 571.45 509 591.49 492.67 606.33 472.17 611.24 449.81 603.78 427.44 589.51 405.31 567.17 382.88 541.44 358.52 516.68 330.91 492.42 300.09 470.14 267.33 451 234.71 432.43 208.93 413.64 192.76 395.94 192.68 376.02 210.79 353.66 237.2 331.29 267.23 308.59 292.83 287.52 319.23 246.82 353.33 258.87 383.63 279.78 406 287.23 432.76 291.4 462.3 292.94 491.87 289.3 523.26 287.26 552.2 288.9 583.52 293.89 571.69 332.83 534.8 364.35Q534.79 364.36 534.79 364.36" opacity="0.59"></path><path d="M521.29 373.95C504.21 394.45 494.34 417.28 491.79 441.32 497.98 465.67 504.75 491.49 507.93 517.02 508.63 553.12 474.63 595.61 445.55 590.28 425.05 577.41 403.13 557.27 379.9 533.75 355.33 510.56 327.65 487.18 297.92 465.23 267.87 445.64 239.35 426.65 218.13 407.93 205.65 390.13 207.21 370.98 224.29 350.48 248.37 329.98 276.3 310.06 301.38 292.32 335.12 260.06 372.53 274.5 400.21 293.28 420.71 300.41 445.42 305.11 472.38 307.75 498.82 305.77 525.85 304.95 549.36 307.01 572.8 311.44 555.19 345.32 521.3 373.94Q521.29 373.95 521.29 373.95" opacity="0.38"></path><path d="M507.79 385.1C491.85 403.74 481.4 424.8 476.89 447.07 480.02 469.42 484.34 492.89 486.5 515.68 488.19 547.14 461.97 582.29 436.16 576.78 417.52 565.28 396.35 547.31 373.3 526.09 349.5 504.72 323 482.65 295.59 461.51 268.99 442.04 244.9 423.09 228.11 404.75 218.96 387.15 221.85 368.91 237.79 350.27 259.54 331.63 285.2 314.36 309.26 299.66 335.06 280.63 362.93 268.45 375.97 277.31 384.72 284.87 398.11 295.28 416.75 306.78 435.39 313.53 457.52 318.61 481.06 322.15 537.59 325.56 538.6 359.23 507.8 385.09Q507.79 385.1 507.79 385.1" opacity="0.30"></path><path d="M494.29 397.14C472.11 430.69 466.7 473.37 465.59 513.73 470.46 549.69 456.24 571.47 422.69 563.28 389.13 540.02 342.6 499.3 293.76 458.82 250.9 422.61 229.11 386.6 251.29 353.05 291.53 319.49 334.78 294.76 364.08 286.99 378.65 283.49 397.85 297.02 431.41 320.28 485.73 331.18 542.56 354.55 494.3 397.13Q494.29 397.14 494.29 397.14" opacity="0.93"></path><path d="M480.79 409.36C459.55 439.18 450.35 476.66 445.81 510.94 448.42 540.89 436.48 557.96 406.66 549.78 376.83 529.62 334.78 493.72 293.08 456.94 258.53 422.58 243.55 388.46 264.79 358.64 300.47 328.81 341.49 308.93 372.23 304.2 391.59 301.9 412.69 313.62 442.52 333.78 488.79 345.51 524.9 371.28 480.79 409.36Q480.79 409.36 480.79 409.36" opacity="0.52"></path><path d="M467.29 421.01C447.41 447.11 435.44 479.02 427.78 507.11 427.15 531.34 415.97 544.21 389.87 536.28 363.77 519.12 327.7 488.18 294.13 455.64 267.59 424.16 258.41 392.8 278.29 366.7 309.36 340.6 347.04 324.72 377.63 321.99 400.21 320.34 422.73 330.12 448.83 347.28 487.29 359.35 506.62 387.24 467.29 421.01Q467.29 421.01 467.29 421.01" opacity="0.83"></path><path d="M453.79 431.41C435.68 453.77 422.05 479.98 411.95 502.07 407.87 520.99 396.59 530.23 374.23 522.78 351.86 508.51 322.64 482.58 297.4 454.68 278.18 426.96 273.68 399.13 291.79 376.76 318.2 354.39 351.6 341.72 380.5 340.13 404.38 338.71 427.26 346.51 449.63 360.78 480.81 372.68 487.83 401.89 453.79 431.41Q453.79 431.41 453.79 431.41" opacity="0.27"></path><path d="M440.29 439.92C417.6 477.19 398.76 517.26 361.49 509.28 324.21 482.83 282.6 425.49 305.29 388.22 349.96 350.94 407.55 347.83 444.83 374.28 482.1 382.26 484.96 402.64 440.29 439.92Q440.29 439.92 440.29 439.92" opacity="0.92"></path><path d="M426.79 446.04C405.55 475.86 382.92 503.96 353.1 495.78 323.27 475.62 297.55 430.2 318.79 400.38 354.48 370.55 405.14 367.62 434.97 387.78 464.79 395.96 462.48 416.21 426.79 446.04Q426.79 446.04 426.79 446.04" opacity="0.67"></path><path d="M413.29 449.39C365.54 427.34 441.61 417.88 413.29 449.39Q413.29 449.39 413.29 449.39" opacity="0.17"></path><path d="M399.79 449.79C366.23 433.47 418.42 427.74 399.79 449.79Q399.79 449.79 399.79 449.79" opacity="0.36"></path></g></svg>