<svg xmlns="http://www.w3.org/2000/svg" version="1.1" xmlns:xlink="http://www.w3.org/1999/xlink" xmlns:svgjs="http://svgjs.dev/svgjs" viewBox="0 0 800 800" opacity="1"><g stroke="hsl(32, 100%, 51%)" fill="none" stroke-linecap="round"><circle r="391.5" cx="400" cy="400" stroke-width="5" stroke-dasharray="1894 2460" transform="rotate(360, 400, 400)" opacity="0.05"></circle><circle r="378" cx="400" cy="400" stroke-width="5" stroke-dasharray="1763 2375" transform="rotate(347, 400, 400)" opacity="0.08"></circle><circle r="364.5" cx="400" cy="400" stroke-width="5" stroke-dasharray="1638 2290" transform="rotate(334, 400, 400)" opacity="0.12"></circle><circle r="351" cx="400" cy="400" stroke-width="5" stroke-dasharray="1516 2205" transform="rotate(321, 400, 400)" opacity="0.15"></circle><circle r="337.5" cx="400" cy="400" stroke-width="5" stroke-dasharray="1400 2121" transform="rotate(309, 400, 400)" opacity="0.19"></circle><circle r="324" cx="400" cy="400" stroke-width="5" stroke-dasharray="1288 2036" transform="rotate(296, 400, 400)" opacity="0.22"></circle><circle r="310.5" cx="400" cy="400" stroke-width="5" stroke-dasharray="1180 1951" transform="rotate(283, 400, 400)" opacity="0.25"></circle><circle r="297" cx="400" cy="400" stroke-width="5" stroke-dasharray="1078 1866" transform="rotate(270, 400, 400)" opacity="0.29"></circle><circle r="283.5" cx="400" cy="400" stroke-width="5" stroke-dasharray="980 1781" transform="rotate(257, 400, 400)" opacity="0.32"></circle><circle r="270" cx="400" cy="400" stroke-width="5" stroke-dasharray="886 1696" transform="rotate(244, 400, 400)" opacity="0.36"></circle><circle r="256.5" cx="400" cy="400" stroke-width="5" stroke-dasharray="798 1612" transform="rotate(231, 400, 400)" opacity="0.39"></circle><circle r="243" cx="400" cy="400" stroke-width="5" stroke-dasharray="714 1527" transform="rotate(219, 400, 400)" opacity="0.42"></circle><circle r="229.5" cx="400" cy="400" stroke-width="5" stroke-dasharray="634 1442" transform="rotate(206, 400, 400)" opacity="0.46"></circle><circle r="216" cx="400" cy="400" stroke-width="5" stroke-dasharray="560 1357" transform="rotate(193, 400, 400)" opacity="0.49"></circle><circle r="202.5" cx="400" cy="400" stroke-width="5" stroke-dasharray="490 1272" transform="rotate(180, 400, 400)" opacity="0.53"></circle><circle r="189" cx="400" cy="400" stroke-width="5" stroke-dasharray="425 1188" transform="rotate(167, 400, 400)" opacity="0.56"></circle><circle r="175.5" cx="400" cy="400" stroke-width="5" stroke-dasharray="364 1103" transform="rotate(154, 400, 400)" opacity="0.59"></circle><circle r="162" cx="400" cy="400" stroke-width="5" stroke-dasharray="308 1018" transform="rotate(141, 400, 400)" opacity="0.63"></circle><circle r="148.5" cx="400" cy="400" stroke-width="5" stroke-dasharray="257 933" transform="rotate(129, 400, 400)" opacity="0.66"></circle><circle r="135" cx="400" cy="400" stroke-width="5" stroke-dasharray="210 848" transform="rotate(116, 400, 400)" opacity="0.69"></circle><circle r="121.5" cx="400" cy="400" stroke-width="5" stroke-dasharray="168 763" transform="rotate(103, 400, 400)" opacity="0.73"></circle><circle r="108" cx="400" cy="400" stroke-width="5" stroke-dasharray="131 679" transform="rotate(90, 400, 400)" opacity="0.76"></circle><circle r="94.5" cx="400" cy="400" stroke-width="5" stroke-dasharray="98 594" transform="rotate(77, 400, 400)" opacity="0.80"></circle><circle r="81" cx="400" cy="400" stroke-width="5" stroke-dasharray="70 509" transform="rotate(64, 400, 400)" opacity="0.83"></circle><circle r="67.5" cx="400" cy="400" stroke-width="5" stroke-dasharray="47 424" transform="rotate(51, 400, 400)" opacity="0.86"></circle><circle r="54" cx="400" cy="400" stroke-width="5" stroke-dasharray="28 339" transform="rotate(39, 400, 400)" opacity="0.90"></circle><circle r="40.5" cx="400" cy="400" stroke-width="5" stroke-dasharray="14 254" transform="rotate(26, 400, 400)" opacity="0.93"></circle><circle r="27" cx="400" cy="400" stroke-width="5" stroke-dasharray="5 170" transform="rotate(13, 400, 400)" opacity="0.97"></circle><circle r="13.5" cx="400" cy="400" stroke-width="5" stroke-dasharray="0 85" opacity="1.00"></circle></g></svg>