<svg width="48" height="48" viewBox="0 0 48 48" fill="none" xmlns="http://www.w3.org/2000/svg">
<path d="M24 46C20.2667 46 16.6667 44.9 13.2 42.7C9.73333 40.5 7 37.9833 5 35.15V42H2V30H14V33H7.15C8.85 35.5667 11.275 37.875 14.425 39.925C17.575 41.975 20.7667 43 24 43C26.6 43 29.0583 42.5 31.375 41.5C33.6917 40.5 35.7083 39.1417 37.425 37.425C39.1417 35.7083 40.5 33.6917 41.5 31.375C42.5 29.0583 43 26.6 43 24H46C46 27.0333 45.425 29.8833 44.275 32.55C43.125 35.2167 41.55 37.55 39.55 39.55C37.55 41.55 35.2167 43.125 32.55 44.275C29.8833 45.425 27.0333 46 24 46ZM2 24C2 20.9667 2.575 18.1167 3.725 15.45C4.875 12.7833 6.45 10.45 8.45 8.45C10.45 6.45 12.7833 4.875 15.45 3.725C18.1167 2.575 20.9667 2 24 2C27.7333 2 31.3333 3.1 34.8 5.3C38.2667 7.5 41 10.0167 43 12.85V6H46V18H34V15H40.85C39.15 12.4333 36.7333 10.125 33.6 8.075C30.4667 6.025 27.2667 5 24 5C21.4 5 18.9417 5.5 16.625 6.5C14.3083 7.5 12.2917 8.85833 10.575 10.575C8.85833 12.2917 7.5 14.3083 6.5 16.625C5.5 18.9417 5 21.4 5 24H2Z" fill="black"/>
</svg>
