<svg width="58" height="48" viewBox="0 0 58 48" fill="none" xmlns="http://www.w3.org/2000/svg">
<path d="M16.0353 0C5.02902 3.18232 0.220443 10.4018 11.3414 12.1989C22.4624 13.996 29 14.8153 29 29.9669C29 14.8508 36.2326 13.8837 46.6586 12.1989C57.7796 10.4018 52.971 3.18232 41.9647 0C53.2947 0 61.2278 11.6349 56.7106 20.5006C52.7759 28.2231 46.5754 27.198 41.3806 29.012C37.3785 30.4095 32.6395 30.7842 30.6343 40.5746C29.3638 46.7781 29.5088 48 29 48C28.4912 48 28.6362 46.7781 27.3657 40.5746C25.3605 30.7842 20.6215 30.4095 16.6194 29.012C11.4246 27.198 5.22413 28.2231 1.28942 20.5006C-3.22776 11.6349 4.7053 0 16.0353 0Z" fill="#D9D9D9"/>
</svg>
