<svg width="31" height="31" viewBox="0 0 31 31" fill="none" xmlns="http://www.w3.org/2000/svg">
<path d="M29 30.6615L19.7461 21.4076C18.7512 22.2881 17.591 22.9665 16.2656 23.443C14.9402 23.9194 13.5683 24.1576 12.15 24.1576C8.75418 24.1576 5.88025 22.9824 3.52815 20.6319C1.17605 18.2814 0 15.4315 0 12.082C0 8.73245 1.17523 5.88142 3.5257 3.52885C5.87617 1.17628 8.72982 0 12.0866 0C15.4435 0 18.2978 1.17555 20.6494 3.52665C23.001 5.87772 24.1768 8.72862 24.1768 12.0793C24.1768 13.4803 23.9371 14.8442 23.4576 16.1711C22.9781 17.498 22.2845 18.7 21.3768 19.7769L30.6615 28.9808L29 30.6615ZM12.1192 21.8885C14.851 21.8885 17.1654 20.9365 19.0623 19.0326C20.9592 17.1288 21.9076 14.8109 21.9076 12.0788C21.9076 9.34677 20.9592 7.02882 19.0623 5.12495C17.1654 3.22111 14.851 2.2692 12.1192 2.2692C9.37027 2.2692 7.04137 3.22111 5.1325 5.12495C3.22363 7.02882 2.2692 9.34677 2.2692 12.0788C2.2692 14.8109 3.22363 17.1288 5.1325 19.0326C7.04137 20.9365 9.37027 21.8885 12.1192 21.8885Z" fill="#F8F8F8"/>
</svg>
